<?xml version="1.0" encoding="utf-8"?>
<!-- Generator: Adobe Illustrator 17.1.0, SVG Export Plug-In . SVG Version: 6.00 Build 0)  -->
<!DOCTYPE svg PUBLIC "-//W3C//DTD SVG 1.1//EN" "http://www.w3.org/Graphics/SVG/1.1/DTD/svg11.dtd">
<svg version="1.1" id="Layer_1" xmlns="http://www.w3.org/2000/svg" xmlns:xlink="http://www.w3.org/1999/xlink" x="0px" y="0px"
	 viewBox="0 0 24 42" enable-background="new 0 0 24 42" xml:space="preserve">
<g id="_x31_50._Favorite">
	<g>
		<path fill="#FFFFFF" d="M21.5,17.6l-6-0.2l-2.1-5.8c-0.8-2.6-2.2-2.6-3.1,0l-2,5.8l-6,0.2c-2.8,0-3.2,1.6-1,3.2l4.7,3.4l-1.6,5.5
			c-0.8,2.6,0.4,3.5,2.7,1.9l4.8-3.4l4.7,3.4c2.3,1.6,3.5,0.8,2.8-1.9l-1.6-5.5l4.7-3.4C24.8,19.1,24.4,17.6,21.5,17.6z M22.7,19.2
			l-6.2,4.6l2.1,7.1c0.1,0.3-0.1,0.4-0.3,0.2L12,26.7l-6.3,4.4c-0.3,0.2-0.4,0.1-0.3-0.2l2.1-7.1l-6.2-4.6c-0.2-0.2-0.2-0.6,0.5-0.6
			h7.4l2.5-7.5c0.1-0.3,0.3-0.3,0.4,0l2.6,7.5h7.4C23,18.6,22.9,19,22.7,19.2z"/>
	</g>
</g>
</svg>
