<?xml version="1.0" encoding="utf-8"?>
<!-- Generator: Adobe Illustrator 17.1.0, SVG Export Plug-In . SVG Version: 6.00 Build 0)  -->
<!DOCTYPE svg PUBLIC "-//W3C//DTD SVG 1.1//EN" "http://www.w3.org/Graphics/SVG/1.1/DTD/svg11.dtd">
<svg version="1.1" id="Layer_1" xmlns="http://www.w3.org/2000/svg" xmlns:xlink="http://www.w3.org/1999/xlink" x="0px" y="0px"
	 viewBox="0 0 24 42" enable-background="new 0 0 24 42" xml:space="preserve">
<g id="_x31_51._Favorite">
	<path fill="#FFFFFF" d="M24,17.7c0-4.3-3.5-7.8-7.8-7.8c-1.6,0-3,0.5-4.2,1.3c-1.2-0.8-2.6-1.3-4.2-1.3C3.5,9.9,0,13.4,0,17.7
		c0,2.1,0.8,4,2.2,5.4l0,0l0.1,0.1c0.1,0.1,0.1,0.1,0.2,0.2l8.7,8.5c0.5,0.5,1.3,0.5,1.7,0l8.8-8.5c0.1-0.1,0.1-0.1,0.2-0.2l0.1-0.1
		l0,0C23.2,21.6,24,19.8,24,17.7z M20.4,22.8l-8.4,8l-8.4-8c-1.5-1.2-2.4-3.1-2.4-5.1c0-3.7,2.9-6.6,6.6-6.6c1.6,0,3.1,0.5,4.2,1.5
		c1.1-1,2.6-1.5,4.2-1.5c3.7,0,6.6,2.9,6.6,6.6C22.8,19.7,21.8,21.6,20.4,22.8z"/>
</g>
</svg>
