<?xml version="1.0" encoding="UTF-8"?>
<!-- Generator: Adobe Illustrator 15.0.0, SVG Export Plug-In  -->
<!DOCTYPE svg [
	<!ENTITY ns_flows "http://ns.adobe.com/Flows/1.0/">
]>
<svg version="1.2" baseProfile="tiny" xmlns="http://www.w3.org/2000/svg" xmlns:xlink="http://www.w3.org/1999/xlink" xmlns:a="http://ns.adobe.com/AdobeSVGViewerExtensions/3.0/" x="0px" y="0px" width="512px" height="512px" viewBox="-96.139 -96.139 512 512" overflow="visible" xml:space="preserve">
<defs>
</defs>
<path fill="#FFFFFF" d="M239.895,79.819V31.746h48.073v48.073H239.895z M233.099,127.884h54.869v144.211  c0,8.623-7.249,15.873-15.873,15.873H47.619c-8.616,0-15.874-7.25-15.874-15.873V127.884h54.869  c-4.53,9.976-6.796,20.412-6.796,32.207c0,43.979,35.824,79.804,80.272,79.804c43.979,0,79.804-35.824,79.804-79.804  C239.895,148.296,237.63,137.86,233.099,127.884L233.099,127.884z M320.168,31.746C320.168,14.06,305.654,0,287.969,0H31.746  C14.06,0,0,14.061,0,31.746v256.223c0,17.687,14.061,32.2,31.746,32.2h256.224c17.686,0,32.199-14.515,32.199-32.2V31.746z   M160.091,112.011c26.293,0,47.604,21.318,47.604,48.081c0,26.294-21.311,47.604-47.604,47.604  c-26.763,0-48.081-21.312-48.081-47.604C112.011,133.329,133.329,112.011,160.091,112.011L160.091,112.011z"/>
</svg>