<?xml version="1.0" encoding="utf-8"?>
<!-- Generator: Adobe Illustrator 17.1.0, SVG Export Plug-In . SVG Version: 6.00 Build 0)  -->
<!DOCTYPE svg PUBLIC "-//W3C//DTD SVG 1.1//EN" "http://www.w3.org/Graphics/SVG/1.1/DTD/svg11.dtd">
<svg version="1.1" id="Layer_1" xmlns="http://www.w3.org/2000/svg" xmlns:xlink="http://www.w3.org/1999/xlink" x="0px" y="0px"
	 viewBox="0 0 24 42" enable-background="new 0 0 24 42" xml:space="preserve">
<g id="_x31_52._Like">
	<path fill="#FFFFFF" d="M20,14h-4V5c0-2.8-2.2-5-5-5C8.2,0,6,2.2,6,5v9h0l-4.6,3.6C0.6,18.4,0,19.9,0,21v14c0,1.1,0.6,2.6,1.4,3.4
		L6,42h14c2.2,0,4-1.8,4-4V17C24,14.8,22.2,14,20,14z M8,5c0-1.7,1.3-3,3-3c1.7,0,3,1.3,3,3v9H8V5z M22,21H10c-0.6,0-1,0.4-1,1
		c0,0.6,0.4,1,1,1h12v4H10c-0.6,0-1,0.4-1,1c0,0.6,0.4,1,1,1h12v4H10c-0.6,0-1,0.4-1,1c0,0.6,0.4,1,1,1h12v3.8
		c0,0.7-0.5,1.2-1.2,1.2L6.5,40l-3.7-2.9c-0.5-0.5-0.9-1.4-0.9-2V20.9c0-0.7,0.4-1.6,0.9-2L6.5,16l14.2,0c0.7,0,1.2,0.5,1.2,1.2V21z
		 M9,22C9,22,9,22,9,22C9,22,9,22,9,22L9,22z"/>
</g>
</svg>
