<?xml version="1.0" encoding="utf-8"?>
<!-- Generator: Adobe Illustrator 17.1.0, SVG Export Plug-In . SVG Version: 6.00 Build 0)  -->
<!DOCTYPE svg PUBLIC "-//W3C//DTD SVG 1.1//EN" "http://www.w3.org/Graphics/SVG/1.1/DTD/svg11.dtd">
<svg version="1.1" id="Layer_1" xmlns="http://www.w3.org/2000/svg" xmlns:xlink="http://www.w3.org/1999/xlink" x="0px" y="0px"
	 viewBox="0 0 47.5 47.5" enable-background="new 0 0 47.5 47.5" xml:space="preserve">
<g id="_x33_10._Sun">
	<path fill="#FFFFFF" d="M46,22.5l-6.6-2.2c-0.4-1.9-1.1-3.6-2.1-5.1L40.4,9c1-2,0.2-2.8-1.8-1.8l-6.2,3.1c-1.5-1-3.3-1.7-5.1-2.1
		L25,1.6c-0.7-2.1-1.8-2.1-2.5,0l-2.2,6.6c-1.9,0.4-3.6,1.1-5.1,2.1L9,7.2C7,6.2,6.2,7,7.2,9l3.1,6.2c-1,1.5-1.7,3.3-2.1,5.1
		l-6.6,2.2c-2.1,0.7-2.1,1.8,0,2.5l6.6,2.2c0.4,1.9,1.1,3.6,2.1,5.1l-3.1,6.2c-1,2-0.2,2.8,1.8,1.8l6.2-3.1c1.5,1,3.3,1.7,5.1,2.1
		l2.2,6.6c0.7,2.1,1.8,2.1,2.5,0l2.2-6.6c1.9-0.4,3.6-1.1,5.1-2.1l6.2,3.1c2,1,2.8,0.2,1.8-1.8l-3.1-6.2c1-1.5,1.7-3.3,2.1-5.1
		L46,25C48.1,24.3,48.1,23.2,46,22.5z M3.8,23.8l4.1-1.4c0,0.4-0.1,0.9-0.1,1.4c0,0.5,0,0.9,0.1,1.4L3.8,23.8z M37.9,9.6L36,13.5
		c-0.6-0.7-1.2-1.3-1.9-1.9L37.9,9.6z M23.8,3.8l1.4,4.1c-0.4,0-0.9-0.1-1.4-0.1c-0.5,0-0.9,0-1.4,0.1L23.8,3.8z M9.6,9.6l3.8,1.9
		c-0.7,0.6-1.3,1.2-1.9,1.9L9.6,9.6z M9.6,37.9l1.9-3.8c0.6,0.7,1.2,1.3,1.9,1.9L9.6,37.9z M23.8,43.8l-1.4-4.1
		c0.4,0,0.9,0.1,1.4,0.1c0.5,0,0.9,0,1.4-0.1L23.8,43.8z M37.9,37.9L34.1,36c0.7-0.6,1.3-1.2,1.9-1.9L37.9,37.9z M23.8,37.8
		c-7.7,0-14-6.3-14-14c0-7.7,6.3-14,14-14s14,6.3,14,14C37.8,31.5,31.5,37.8,23.8,37.8z M39.7,25.1c0-0.4,0.1-0.9,0.1-1.4
		c0-0.5,0-0.9-0.1-1.4l4.1,1.4L39.7,25.1z"/>
</g>
</svg>
