<?xml version="1.0" encoding="utf-8"?>
<!-- Generator: Adobe Illustrator 17.1.0, SVG Export Plug-In . SVG Version: 6.00 Build 0)  -->
<!DOCTYPE svg PUBLIC "-//W3C//DTD SVG 1.1//EN" "http://www.w3.org/Graphics/SVG/1.1/DTD/svg11.dtd">
<svg version="1.1" id="Layer_1" xmlns="http://www.w3.org/2000/svg" xmlns:xlink="http://www.w3.org/1999/xlink" x="0px" y="0px"
	 viewBox="0 0 24 42" enable-background="new 0 0 24 42" xml:space="preserve">
<g id="_x32_62._Stop_Clock">
	<path fill="#FFFFFF" d="M12,15.7c-0.4,0-0.7,0.3-0.7,0.7V23c0,0.4,0.3,0.7,0.7,0.7l0,0c0.4,0,0.7-0.3,0.7-0.7v-6.7
		C12.7,16,12.4,15.7,12,15.7z M12.7,11.1V8.3h2.7c0.4,0,0.7-0.3,0.7-0.7C16,7.3,15.7,7,15.3,7H8.7C8.3,7,8,7.3,8,7.7
		c0,0.4,0.3,0.7,0.7,0.7h2.7v2.7C5,11.4,0,16.6,0,23c0,6.6,5.4,12,12,12s12-5.4,12-12C24,16.6,19,11.4,12.7,11.1z M12,33.7
		C6.1,33.7,1.3,28.9,1.3,23S6.1,12.3,12,12.3S22.7,17.1,22.7,23S17.9,33.7,12,33.7z"/>
</g>
</svg>
