<?xml version="1.0" encoding="utf-8"?>
<!-- Generator: Adobe Illustrator 17.1.0, SVG Export Plug-In . SVG Version: 6.00 Build 0)  -->
<!DOCTYPE svg PUBLIC "-//W3C//DTD SVG 1.1//EN" "http://www.w3.org/Graphics/SVG/1.1/DTD/svg11.dtd">
<svg version="1.1" id="Layer_1" xmlns="http://www.w3.org/2000/svg" xmlns:xlink="http://www.w3.org/1999/xlink" x="0px" y="0px"
	 viewBox="0 0 24 42" enable-background="new 0 0 24 42" xml:space="preserve">
<g id="_x34_15._Battery">
	<path fill="#FFFFFF" d="M6,17.4c-0.4,0-0.6,0.2-0.6,0.6v6c0,0.4,0.2,0.6,0.6,0.6c0.4,0,0.6-0.2,0.6-0.6v-6
		C6.6,17.6,6.4,17.4,6,17.4z M9.6,17.4C9.2,17.4,9,17.6,9,18v6c0,0.4,0.2,0.6,0.6,0.6s0.6-0.2,0.6-0.6v-6
		C10.2,17.6,10,17.4,9.6,17.4z M22.8,18.6V15c0-1.3-1.1-2.4-2.4-2.4h-18C1.1,12.6,0,13.7,0,15v12c0,1.3,1.1,2.4,2.4,2.4h18
		c1.3,0,2.4-1.1,2.4-2.4v-3.6c0.7,0,1.2-0.5,1.2-1.2v-2.4C24,19.1,23.5,18.6,22.8,18.6z M21.6,27c0,0.7-0.5,1.2-1.2,1.2h-18
		c-0.7,0-1.2-0.5-1.2-1.2V15c0-0.7,0.5-1.2,1.2-1.2h18c0.7,0,1.2,0.5,1.2,1.2V27z M13.2,17.4c-0.4,0-0.6,0.2-0.6,0.6v6
		c0,0.4,0.2,0.6,0.6,0.6c0.4,0,0.6-0.2,0.6-0.6v-6C13.8,17.6,13.6,17.4,13.2,17.4z M16.8,17.4c-0.4,0-0.6,0.2-0.6,0.6v6
		c0,0.4,0.2,0.6,0.6,0.6s0.6-0.2,0.6-0.6v-6C17.4,17.6,17.2,17.4,16.8,17.4z"/>
</g>
</svg>
