<?xml version="1.0" encoding="utf-8"?>
<!-- Generator: Adobe Illustrator 17.1.0, SVG Export Plug-In . SVG Version: 6.00 Build 0)  -->
<!DOCTYPE svg PUBLIC "-//W3C//DTD SVG 1.1//EN" "http://www.w3.org/Graphics/SVG/1.1/DTD/svg11.dtd">
<svg version="1.1" id="Layer_1" xmlns="http://www.w3.org/2000/svg" xmlns:xlink="http://www.w3.org/1999/xlink" x="0px" y="0px"
	 viewBox="0 0 24 42" enable-background="new 0 0 24 42" xml:space="preserve">
<g id="_x31_79._Gym">
	<path fill="#FFFFFF" d="M23.5,20.5H22V17c0-0.5-0.5-1-1-1s-1,0.5-1,1v3.5h-1V15c0-0.6-0.5-1-1-1s-1,0.4-1,1v5.5H7V15
		c0-0.6-0.4-1-1-1s-1,0.4-1,1v5.5H4V17c0-0.5-0.5-1-1-1s-1,0.5-1,1v3.5H0.5C0.2,20.5,0,20.7,0,21s0.2,0.5,0.5,0.5H2V25
		c0,0.5,0.5,1,1,1s1-0.5,1-1v-3.5h1V27c0,0.5,0.4,1,1,1s1-0.5,1-1v-5.5h10V27c0,0.5,0.5,1,1,1s1-0.5,1-1v-5.5h1V25c0,0.5,0.5,1,1,1
		s1-0.5,1-1v-3.5h1.5c0.3,0,0.5-0.2,0.5-0.5S23.8,20.5,23.5,20.5z"/>
</g>
</svg>
