<?xml version="1.0" encoding="UTF-8"?>
<!-- Generator: Adobe Illustrator 15.0.0, SVG Export Plug-In  -->
<!DOCTYPE svg [
	<!ENTITY ns_flows "http://ns.adobe.com/Flows/1.0/">
]>
<svg version="1.2" baseProfile="tiny" xmlns="http://www.w3.org/2000/svg" xmlns:xlink="http://www.w3.org/1999/xlink" xmlns:a="http://ns.adobe.com/AdobeSVGViewerExtensions/3.0/" x="0px" y="0px" width="512px" height="512px" viewBox="-104.021 -66 512 512" overflow="visible" xml:space="preserve">
<defs>
</defs>
<path id="path9-3_1_" fill="#FFFFFF" d="M282.767,201.99c-14.118-15.222-32.918-25.305-56.395-30.238v-2.047  c16.338-6.796,29.135-17.432,38.408-31.897c9.27-14.458,13.906-30.962,13.906-49.505c0-15.993-3.363-30.114-10.073-42.372  c-6.727-12.25-16.891-22.03-30.5-29.341c-12.597-6.806-26.068-11.272-40.449-13.401C183.284,1.061,162.148,0,134.24,0H0v380h152.109  c26.365,0,48.111-2.391,65.201-7.151c17.097-4.755,32.8-12.755,47.086-23.99c12.087-9.357,21.698-21.182,28.838-35.477  c7.139-14.292,10.723-30.873,10.723-49.761C303.957,237.768,296.895,217.217,282.767,201.99L282.767,201.99z M94.95,69.666h6.628  c17.014,0,29.817,0.129,38.404,0.382c8.6,0.258,16.034,1.749,22.34,4.466c6.635,2.9,11.514,7.574,14.662,14.038  c3.15,6.47,4.728,12.763,4.728,18.882c0,8.347-1.454,15.66-4.335,21.95c-2.9,6.302-8.173,11.235-15.828,14.803  c-6.98,3.235-13.733,5.018-20.286,5.365c-6.553,0.343-17.991,0.503-34.325,0.503h-11.99V69.666H94.95z M199.705,286.465  c-3.997,7.229-10.337,12.725-19.013,16.453c-9.876,4.262-19.571,6.562-29.093,6.895c-9.53,0.341-26.716,0.52-51.543,0.52H94.95  v-95.201h17.599c17.021,0,30.582,0.128,40.703,0.387c10.125,0.254,18.082,1.493,23.863,3.703  c9.531,3.404,16.668,8.417,21.438,15.053c4.77,6.635,7.153,15.822,7.153,27.562C205.706,271.021,203.701,279.238,199.705,286.465  L199.705,286.465z"/>
</svg>