<?xml version="1.0" encoding="utf-8"?>
<!-- Generator: Adobe Illustrator 17.1.0, SVG Export Plug-In . SVG Version: 6.00 Build 0)  -->
<!DOCTYPE svg PUBLIC "-//W3C//DTD SVG 1.1//EN" "http://www.w3.org/Graphics/SVG/1.1/DTD/svg11.dtd">
<svg version="1.1" id="Layer_1" xmlns="http://www.w3.org/2000/svg" xmlns:xlink="http://www.w3.org/1999/xlink" x="0px" y="0px"
	 viewBox="0 0 24 42" enable-background="new 0 0 24 42" xml:space="preserve">
<g id="_x32_70._Clock">
	<path fill="#FFFFFF" d="M23.4,31.8h-0.7c-0.5-5.2-3.9-9.4-8.3-10.5v-0.6c4.4-1.1,7.9-5.3,8.3-10.5h0.7c0.4,0,0.6-0.2,0.6-0.6
		C24,9.2,23.8,9,23.4,9h-0.6l0,0h-1.2l0,0H2.4l0,0H1.2l0,0H0.6C0.2,9,0,9.2,0,9.6c0,0.4,0.2,0.6,0.6,0.6h0.7
		c0.5,5.2,3.9,9.4,8.3,10.5v0.6c-4.4,1.1-7.9,5.3-8.3,10.5H0.6C0.2,31.8,0,32,0,32.4C0,32.8,0.2,33,0.6,33h0.6l0,0h1.2l0,0h2.3l0,0
		h1.4l0,0H18l0,0h1.4l0,0h2.2l0,0h1.2l0,0h0.6c0.4,0,0.6-0.2,0.6-0.6C24,32,23.8,31.8,23.4,31.8z M21.5,10.2
		c-0.2,1.7-0.7,3.4-1.6,4.8H4c-0.8-1.4-1.4-3.1-1.6-4.8H21.5z M6.8,31.8c1.4-2,3.4-3.6,5.2-3.6s3.8,1.6,5.2,3.6H6.8z M18.6,31.8
		C16.9,29.2,14.4,27,12,27s-5,2.2-6.6,4.8H2.5c0.5-5,4-8.9,8.3-9.5v-2.6c-2.3-0.4-4.4-1.6-5.9-3.5h14.3c-1.5,1.9-3.6,3.2-5.9,3.5
		v2.6c4.4,0.6,7.9,4.6,8.3,9.5H18.6z"/>
</g>
</svg>
