<?xml version="1.0" encoding="utf-8"?>
<!-- Generator: Adobe Illustrator 17.1.0, SVG Export Plug-In . SVG Version: 6.00 Build 0)  -->
<!DOCTYPE svg PUBLIC "-//W3C//DTD SVG 1.1//EN" "http://www.w3.org/Graphics/SVG/1.1/DTD/svg11.dtd">
<svg version="1.1" id="Layer_1" xmlns="http://www.w3.org/2000/svg" xmlns:xlink="http://www.w3.org/1999/xlink" x="0px" y="0px"
	 viewBox="0 0 24 42" enable-background="new 0 0 24 42" xml:space="preserve">
<g id="_x34_14._Dashboard">
	<path fill="#FFFFFF" d="M18,26.4h2.4v-1.2H18V26.4z M1.2,28.8V24c0-5.9,4.9-10.8,10.8-10.8S22.8,18.1,22.8,24v4.8H24V24
		c0-6.6-5.4-12-12-12S0,17.4,0,24c0,3.8,0,4.8,0,4.8H1.2z M0,28.8C0,29.5,0.5,30,1.2,30h21.6c0.7,0,1.2-0.5,1.2-1.2H0z M3.6,26.4H6
		v-1.2H3.6V26.4z M12.6,15.6h-1.2V18h1.2V15.6z M11.6,25c0.2,0.2,0.6,0.2,0.8,0l4.7-4.8c0.2-0.2,0.2-0.6,0-0.8l0,0
		c-0.2-0.2-0.6-0.2-0.8,0l-4.7,4.8C11.4,24.4,11.4,24.8,11.6,25L11.6,25z"/>
</g>
</svg>
